<svg width="126" height="28" viewBox="0 0 126 28" fill="none" xmlns="http://www.w3.org/2000/svg">
<mask id="mask0_287_251" style="mask-type:luminance" maskUnits="userSpaceOnUse" x="0" y="0" width="126" height="28">
<path d="M126 0H0V27.8682H126V0Z" fill="white"/>
</mask>
<g mask="url(#mask0_287_251)">
<path d="M0.978516 1.27588V26.8613C2.75734 26.9206 5.27734 26.8317 8.2124 26.1201C12.6595 25.0232 15.6242 23.0072 16.306 22.5328C16.9286 22.1178 19.8044 20.0425 22.4133 16.2773C24.5776 13.1347 25.5263 10.2589 25.882 9.04342C26.8308 5.78224 26.9493 2.96577 26.89 1.06836L0.978516 1.27588Z" fill="white"/>
</g>
<mask id="mask1_287_251" style="mask-type:luminance" maskUnits="userSpaceOnUse" x="0" y="0" width="126" height="28">
<path d="M126 0H0V27.8682H126V0Z" fill="white"/>
</mask>
<g mask="url(#mask1_287_251)">
<path d="M27.0378 26.8612V18.4118C26.4449 18.3822 25.6147 18.4118 24.6364 18.649C23.154 19.0048 22.1757 19.6867 21.9682 19.8349C21.7606 19.9831 20.8119 20.665 19.9522 21.9102C19.2406 22.9478 18.9145 23.8965 18.7959 24.3116C18.4698 25.3789 18.4402 26.3276 18.4698 26.9502L27.0378 26.8612Z" fill="white"/>
<path d="M34.5047 0.362429H50.1463V18.2988H46.8624V3.29028H37.8019V18.2988H34.5047V0.362429ZM66.8694 18.2988V5.75654L57.0967 18.2988H54.2875V0.362429H57.5583V12.9179L67.331 0.362429H70.1533V18.2988H66.8694ZM77.7235 0.362429V7.44467H79.5831L84.5552 0.362429H88.5117L82.2076 9.0141L88.6964 18.2988H84.6475L79.5831 10.9792H77.7235V18.2988H74.4396V0.362429H77.7235Z" fill="white"/>
<path d="M36.7322 26.9365C36.4125 26.9365 36.113 26.8779 35.8338 26.7606C35.5546 26.6413 35.3116 26.4793 35.1048 26.2746C34.8981 26.0679 34.735 25.827 34.6156 25.5521C34.4963 25.275 34.4366 24.9787 34.4366 24.6632C34.4366 24.3478 34.4963 24.0526 34.6156 23.7776C34.735 23.5005 34.8981 23.2597 35.1048 23.055C35.3116 22.8504 35.5546 22.6895 35.8338 22.5723C36.113 22.4529 36.4125 22.3932 36.7322 22.3932C36.9624 22.3932 37.1915 22.4273 37.4196 22.4955C37.6477 22.5637 37.8576 22.6682 38.0495 22.8089C38.2413 22.9474 38.4065 23.1233 38.545 23.3364C38.6836 23.5495 38.7784 23.8011 38.8296 24.0909H38.0175C37.9749 23.9247 37.9109 23.7808 37.8257 23.6593C37.7425 23.5357 37.6445 23.4344 37.5315 23.3556C37.4185 23.2767 37.2917 23.2181 37.151 23.1797C37.0125 23.1414 36.8654 23.1222 36.7098 23.1222C36.5052 23.1222 36.3123 23.1595 36.1311 23.2341C35.9521 23.3066 35.7954 23.411 35.6611 23.5474C35.529 23.6817 35.4245 23.8437 35.3478 24.0334C35.2711 24.2231 35.2327 24.4341 35.2327 24.6664C35.2327 24.903 35.2711 25.1162 35.3478 25.3059C35.4245 25.4956 35.529 25.6576 35.6611 25.7919C35.7954 25.924 35.9521 26.0263 36.1311 26.0988C36.3123 26.1691 36.5052 26.2043 36.7098 26.2043C36.8633 26.2043 37.0093 26.1851 37.1478 26.1468C37.2885 26.1084 37.4153 26.0498 37.5283 25.9709C37.6434 25.892 37.7425 25.7919 37.8257 25.6704C37.9088 25.5489 37.9717 25.405 38.0143 25.2387H38.8296C38.7784 25.5286 38.6836 25.7812 38.545 25.9965C38.4086 26.2096 38.2445 26.3855 38.0527 26.524C37.8608 26.6626 37.6509 26.766 37.4228 26.8342C37.1947 26.9024 36.9645 26.9365 36.7322 26.9365ZM40.4793 23.2053H39.1845V22.4955H42.5671V23.2053H41.2723V26.8438H40.4793V23.2053ZM43.2226 22.4955H45.0546C45.2741 22.4955 45.4755 22.5328 45.6588 22.6074C45.8443 22.6799 46.0041 22.7812 46.1384 22.9112C46.2727 23.0412 46.3771 23.1957 46.4518 23.3748C46.5264 23.5538 46.5637 23.7488 46.5637 23.9599C46.5637 24.1837 46.5264 24.3872 46.4518 24.5705C46.3793 24.7538 46.2759 24.9116 46.1416 25.0437C46.0095 25.1737 45.8517 25.275 45.6684 25.3475C45.4851 25.4199 45.2848 25.4562 45.0674 25.4562H44.0187V26.8438H43.2226V22.4955ZM45.029 24.7464C45.1334 24.7464 45.2304 24.7261 45.3199 24.6856C45.4095 24.6451 45.4873 24.5897 45.5533 24.5194C45.6194 24.449 45.6716 24.3659 45.71 24.27C45.7484 24.1741 45.7675 24.0707 45.7675 23.9599C45.7675 23.8597 45.7484 23.7648 45.71 23.6753C45.6716 23.5837 45.6194 23.5037 45.5533 23.4355C45.4873 23.3652 45.4084 23.3098 45.3167 23.2693C45.2272 23.2266 45.1292 23.2053 45.0226 23.2053H44.0187V24.7464H45.029ZM49.2173 26.9365C48.8934 26.9365 48.5886 26.8779 48.3029 26.7606C48.0195 26.6413 47.7711 26.4793 47.558 26.2746C47.347 26.0679 47.1797 25.827 47.056 25.5521C46.9345 25.275 46.8738 24.9787 46.8738 24.6632C46.8738 24.3478 46.9345 24.0526 47.056 23.7776C47.1797 23.5005 47.347 23.2597 47.558 23.055C47.7711 22.8504 48.0195 22.6895 48.3029 22.5723C48.5886 22.4529 48.8934 22.3932 49.2173 22.3932C49.5413 22.3932 49.8451 22.4529 50.1286 22.5723C50.4142 22.6895 50.6636 22.8504 50.8767 23.055C51.0899 23.2597 51.2572 23.5005 51.3787 23.7776C51.5023 24.0526 51.5641 24.3478 51.5641 24.6632C51.5641 24.9787 51.5023 25.275 51.3787 25.5521C51.2572 25.827 51.0899 26.0679 50.8767 26.2746C50.6636 26.4793 50.4142 26.6413 50.1286 26.7606C49.8451 26.8779 49.5413 26.9365 49.2173 26.9365ZM49.2173 26.2043C49.4326 26.2043 49.6341 26.1659 49.8216 26.0892C50.0113 26.0103 50.1765 25.9027 50.3172 25.7663C50.4579 25.6299 50.5687 25.4679 50.6497 25.2803C50.7307 25.0906 50.7712 24.886 50.7712 24.6664C50.7712 24.4448 50.7307 24.2401 50.6497 24.0526C50.5687 23.8629 50.4579 23.6998 50.3172 23.5634C50.1765 23.4249 50.0113 23.3172 49.8216 23.2405C49.6341 23.1616 49.4326 23.1222 49.2173 23.1222C49.0042 23.1222 48.8028 23.1616 48.6131 23.2405C48.4255 23.3172 48.2614 23.4249 48.1207 23.5634C47.9822 23.6998 47.8724 23.8629 47.7914 24.0526C47.7104 24.2401 47.6699 24.4448 47.6699 24.6664C47.6699 24.886 47.7104 25.0906 47.7914 25.2803C47.8724 25.4679 47.9832 25.6299 48.1239 25.7663C48.2646 25.9027 48.4287 26.0103 48.6163 26.0892C48.8038 26.1659 49.0042 26.2043 49.2173 26.2043ZM55.3464 26.8438V23.8032L52.9773 26.8438H52.2963V22.4955H53.0892V25.5393L55.4583 22.4955H56.1425V26.8438H55.3464ZM58.096 23.2053H56.8012V22.4955H60.1838V23.2053H58.8889V26.8438H58.096V23.2053ZM60.8392 22.4955H63.819V23.2085H61.6353V24.2988H63.5217V24.9702H61.6353V26.1308H63.8478V26.8438H60.8392V22.4955ZM64.1803 26.2267H64.3945C64.5523 26.2267 64.6652 26.1798 64.7335 26.086C64.8017 25.9922 64.8358 25.8462 64.8358 25.648V22.4987H68.3207V26.8469H67.5246V23.2085H65.6319V25.7247C65.6319 25.9379 65.5999 26.1212 65.536 26.2746C65.472 26.4281 65.3846 26.5549 65.2738 26.6551C65.1629 26.7532 65.034 26.8246 64.8869 26.8693C64.742 26.9162 64.5864 26.9397 64.4201 26.9397H64.1803V26.2267ZM69.3566 22.4955H70.1527V23.995H71.1886C71.406 23.995 71.6064 24.0313 71.7897 24.1037C71.973 24.1741 72.1308 24.2732 72.2629 24.4011C72.3972 24.5268 72.5006 24.676 72.573 24.8487C72.6476 25.0213 72.6849 25.21 72.6849 25.4146C72.6849 25.6171 72.6476 25.8057 72.573 25.9805C72.4984 26.1553 72.394 26.3066 72.2597 26.4345C72.1276 26.5624 71.9688 26.6626 71.7833 26.735C71.6 26.8075 71.3986 26.8438 71.179 26.8438H69.3566V22.4955ZM71.1471 26.134C71.2579 26.134 71.3581 26.1158 71.4476 26.0796C71.5393 26.0434 71.6171 25.9933 71.681 25.9293C71.7471 25.8633 71.7982 25.7865 71.8345 25.6991C71.8707 25.6118 71.8888 25.5169 71.8888 25.4146C71.8888 25.3123 71.8707 25.2185 71.8345 25.1332C71.8004 25.0458 71.7503 24.9702 71.6842 24.9062C71.6203 24.8423 71.5425 24.7922 71.4508 24.756C71.3613 24.7197 71.2611 24.7016 71.1503 24.7016H70.1527V26.134H71.1471ZM73.4107 22.4955H74.2068V24.2988H76.4001V22.4955H77.1994V26.8438H76.4001V25.0085H74.2068V26.8438H73.4107V22.4955ZM80.937 26.0029H78.9355L78.5902 26.8438H77.7493L79.559 22.4923H80.3135L82.1231 26.8438H81.2823L80.937 26.0029ZM80.6652 25.3379L79.9618 23.6242L79.9426 23.5186H79.933L79.9075 23.6242L79.2073 25.3379H80.6652ZM84.9846 26.8438V25.3027H84.2397C84.2098 25.3027 84.1811 25.3027 84.1534 25.3027C84.1278 25.3027 84.1001 25.3016 84.0702 25.2995L83.2102 26.8438H82.2958L83.2805 25.178C83.1462 25.1311 83.0247 25.0682 82.916 24.9894C82.8073 24.9084 82.7146 24.8135 82.6379 24.7048C82.5611 24.5961 82.5015 24.4757 82.4588 24.3435C82.4162 24.2092 82.3949 24.0654 82.3949 23.9119C82.3949 23.7009 82.4322 23.508 82.5068 23.3332C82.5814 23.1584 82.6858 23.0092 82.8201 22.8856C82.9544 22.762 83.1132 22.6661 83.2965 22.5978C83.4819 22.5296 83.6844 22.4955 83.904 22.4955H85.7807V26.8438H84.9846ZM84.9846 23.2053H83.936C83.8315 23.2053 83.7335 23.2234 83.6418 23.2597C83.5502 23.2959 83.4713 23.346 83.4052 23.4099C83.3391 23.4739 83.2869 23.5485 83.2486 23.6337C83.2102 23.719 83.191 23.8117 83.191 23.9119C83.191 24.0185 83.2091 24.1155 83.2454 24.2028C83.2837 24.2902 83.3359 24.3659 83.402 24.4298C83.4702 24.4938 83.5491 24.5439 83.6386 24.5801C83.7303 24.6142 83.8283 24.6313 83.9328 24.6313H84.9846V23.2053ZM89.2146 22.4955V24.2124H89.6654L90.8707 22.4955H91.8299L90.3016 24.5929L91.8746 26.8438H90.8931L89.6654 25.0693H89.2146V26.8438H88.4185V22.4955H89.2146ZM94.2406 26.9365C93.9166 26.9365 93.6118 26.8779 93.3262 26.7606C93.0427 26.6413 92.7944 26.4793 92.5812 26.2746C92.3702 26.0679 92.2029 25.827 92.0793 25.5521C91.9578 25.275 91.897 24.9787 91.897 24.6632C91.897 24.3478 91.9578 24.0526 92.0793 23.7776C92.2029 23.5005 92.3702 23.2597 92.5812 23.055C92.7944 22.8504 93.0427 22.6895 93.3262 22.5723C93.6118 22.4529 93.9166 22.3932 94.2406 22.3932C94.5646 22.3932 94.8683 22.4529 95.1518 22.5723C95.4374 22.6895 95.6868 22.8504 95.8999 23.055C96.1131 23.2597 96.2804 23.5005 96.4019 23.7776C96.5255 24.0526 96.5873 24.3478 96.5873 24.6632C96.5873 24.9787 96.5255 25.275 96.4019 25.5521C96.2804 25.827 96.1131 26.0679 95.8999 26.2746C95.6868 26.4793 95.4374 26.6413 95.1518 26.7606C94.8683 26.8779 94.5646 26.9365 94.2406 26.9365ZM94.2406 26.2043C94.4559 26.2043 94.6573 26.1659 94.8449 26.0892C95.0346 26.0103 95.1998 25.9027 95.3404 25.7663C95.4811 25.6299 95.5919 25.4679 95.6729 25.2803C95.7539 25.0906 95.7944 24.886 95.7944 24.6664C95.7944 24.4448 95.7539 24.2401 95.6729 24.0526C95.5919 23.8629 95.4811 23.6998 95.3404 23.5634C95.1998 23.4249 95.0346 23.3172 94.8449 23.2405C94.6573 23.1616 94.4559 23.1222 94.2406 23.1222C94.0274 23.1222 93.826 23.1616 93.6363 23.2405C93.4487 23.3172 93.2846 23.4249 93.1439 23.5634C93.0054 23.6998 92.8956 23.8629 92.8146 24.0526C92.7336 24.2401 92.6931 24.4448 92.6931 24.6664C92.6931 24.886 92.7336 25.0906 92.8146 25.2803C92.8956 25.4679 93.0065 25.6299 93.1471 25.7663C93.2878 25.9027 93.4519 26.0103 93.6395 26.0892C93.8271 26.1659 94.0274 26.2043 94.2406 26.2043ZM97.3195 22.4955H98.0133L99.5128 24.5226L101.022 22.4955H101.716V26.8438H100.92V23.7712L99.6183 25.5489H99.4041L98.1156 23.7648V26.8438H97.3195V22.4955ZM102.761 22.4955H106.553V26.8438H105.757V23.2053H103.56V26.8438H102.761V22.4955ZM110.255 26.0029H108.254L107.909 26.8438H107.068L108.877 22.4923H109.632L111.442 26.8438H110.601L110.255 26.0029ZM109.984 25.3379L109.28 23.6242L109.261 23.5186H109.252L109.226 23.6242L108.526 25.3379H109.984ZM111.995 22.4955H112.791V24.2988H114.984V22.4955H115.783V26.8438H114.984V25.0085H112.791V26.8438H111.995V22.4955ZM119.873 26.8438V23.8032L117.504 26.8438H116.823V22.4955H117.615V25.5393L119.985 22.4955H120.669V26.8438H119.873ZM124.016 26.8438V25.3027H123.271C123.241 25.3027 123.213 25.3027 123.185 25.3027C123.159 25.3027 123.132 25.3016 123.102 25.2995L122.242 26.8438H121.327L122.312 25.178C122.178 25.1311 122.056 25.0682 121.948 24.9894C121.839 24.9084 121.746 24.8135 121.67 24.7048C121.593 24.5961 121.533 24.4757 121.49 24.3435C121.448 24.2092 121.427 24.0654 121.427 23.9119C121.427 23.7009 121.464 23.508 121.538 23.3332C121.613 23.1584 121.717 23.0092 121.852 22.8856C121.986 22.762 122.145 22.6661 122.328 22.5978C122.514 22.5296 122.716 22.4955 122.936 22.4955H124.812V26.8438H124.016ZM124.016 23.2053H122.968C122.863 23.2053 122.765 23.2234 122.673 23.2597C122.582 23.2959 122.503 23.346 122.437 23.4099C122.371 23.4739 122.319 23.5485 122.28 23.6337C122.242 23.719 122.223 23.8117 122.223 23.9119C122.223 24.0185 122.241 24.1155 122.277 24.2028C122.315 24.2902 122.368 24.3659 122.434 24.4298C122.502 24.4938 122.581 24.5439 122.67 24.5801C122.762 24.6142 122.86 24.6313 122.964 24.6313H124.016V23.2053Z" fill="white"/>
</g>
</svg>
