<svg width="204" height="46" viewBox="0 0 204 46" fill="none" xmlns="http://www.w3.org/2000/svg">
<mask id="mask0_288_298" style="mask-type:luminance" maskUnits="userSpaceOnUse" x="0" y="0" width="204" height="46">
<path d="M204 0H0V45.12H204V0Z" fill="white"/>
</mask>
<g mask="url(#mask0_288_298)">
<path d="M1.58447 2.06451V43.4885C4.46447 43.5845 8.54447 43.4405 13.2965 42.2885C20.4965 40.5125 25.2965 37.2485 26.4005 36.4805C27.4085 35.8085 32.0645 32.4485 36.2885 26.3525C39.7925 21.2645 41.3285 16.6085 41.9045 14.6405C43.4405 9.36051 43.6325 4.80052 43.5365 1.72852L1.58447 2.06451Z" fill="#273B46"/>
</g>
<mask id="mask1_288_298" style="mask-type:luminance" maskUnits="userSpaceOnUse" x="0" y="0" width="204" height="46">
<path d="M204 0H0V45.12H204V0Z" fill="white"/>
</mask>
<g mask="url(#mask1_288_298)">
<path d="M43.7755 43.4883V29.8083C42.8155 29.7603 41.4715 29.8083 39.8875 30.1923C37.4875 30.7683 35.9035 31.8723 35.5675 32.1123C35.2315 32.3523 33.6955 33.4563 32.3035 35.4723C31.1515 37.1523 30.6235 38.6883 30.4315 39.3603C29.9035 41.0883 29.8555 42.6243 29.9035 43.6323L43.7755 43.4883Z" fill="#273B46"/>
<path d="M55.8649 1.44254H81.1894V30.4824H75.8725V6.18287H61.2031V30.4824H55.8649V1.44254ZM108.265 30.4824V10.1759L92.4423 30.4824H87.8942V1.44254H93.1897V21.7705L109.012 1.44254H113.582V30.4824H108.265ZM125.838 1.44254V12.909H128.849L136.899 1.44254H143.305L133.098 15.45L143.604 30.4824H137.048L128.849 18.6316H125.838V30.4824H120.521V1.44254H125.838Z" fill="#273B46"/>
<path d="M59.4714 42.5154C58.9538 42.5154 58.4689 42.4204 58.0168 42.2306C57.5648 42.0374 57.1714 41.7751 56.8366 41.4438C56.5019 41.1091 56.2379 40.7191 56.0446 40.2739C55.8514 39.8253 55.7547 39.3456 55.7547 38.8349C55.7547 38.3242 55.8514 37.8462 56.0446 37.401C56.2379 36.9524 56.5019 36.5624 56.8366 36.2311C57.1714 35.8998 57.5648 35.6393 58.0168 35.4495C58.4689 35.2562 58.9538 35.1596 59.4714 35.1596C59.8441 35.1596 60.2151 35.2148 60.5844 35.3253C60.9536 35.4357 61.2935 35.6048 61.6041 35.8326C61.9147 36.0569 62.1822 36.3416 62.4065 36.6867C62.6308 37.0318 62.7844 37.439 62.8672 37.9083H61.5524C61.4833 37.6391 61.3798 37.4062 61.2418 37.2095C61.1072 37.0093 60.9484 36.8454 60.7655 36.7177C60.5826 36.59 60.3773 36.4951 60.1495 36.433C59.9252 36.3709 59.6871 36.3398 59.4352 36.3398C59.1039 36.3398 58.7916 36.4002 58.4983 36.521C58.2084 36.6384 57.9547 36.8075 57.7373 37.0283C57.5234 37.2457 57.3543 37.508 57.23 37.8151C57.1058 38.1223 57.0437 38.4639 57.0437 38.8401C57.0437 39.2231 57.1058 39.5682 57.23 39.8754C57.3543 40.1825 57.5234 40.4448 57.7373 40.6622C57.9547 40.8761 58.2084 41.0418 58.4983 41.1591C58.7916 41.273 59.1039 41.3299 59.4352 41.3299C59.6837 41.3299 59.92 41.2989 60.1444 41.2368C60.3721 41.1747 60.5775 41.0797 60.7604 40.9521C60.9467 40.8244 61.1072 40.6622 61.2418 40.4655C61.3764 40.2688 61.4782 40.0358 61.5472 39.7667H62.8672C62.7844 40.236 62.6308 40.6449 62.4065 40.9935C62.1856 41.3386 61.9199 41.6233 61.6093 41.8476C61.2987 42.0719 60.9588 42.2393 60.5895 42.3497C60.2203 42.4601 59.8476 42.5154 59.4714 42.5154ZM65.5382 36.4744H63.4418V35.3253H68.9184V36.4744H66.822V42.3652H65.5382V36.4744ZM69.9796 35.3253H72.9457C73.3012 35.3253 73.6273 35.3857 73.9241 35.5064C74.2243 35.6238 74.4831 35.7877 74.7005 35.9982C74.9179 36.2087 75.087 36.4589 75.2078 36.7488C75.3286 37.0387 75.389 37.3544 75.389 37.6961C75.389 38.0584 75.3286 38.388 75.2078 38.6848C75.0905 38.9816 74.9231 39.2369 74.7057 39.4509C74.4918 39.6614 74.2364 39.8253 73.9396 39.9427C73.6428 40.06 73.3184 40.1187 72.9664 40.1187H71.2686V42.3652H69.9796V35.3253ZM72.9043 38.9695C73.0734 38.9695 73.2304 38.9367 73.3754 38.8711C73.5203 38.8056 73.6463 38.7158 73.7532 38.602C73.8602 38.4881 73.9448 38.3535 74.0069 38.1982C74.069 38.0429 74.1001 37.8755 74.1001 37.6961C74.1001 37.5339 74.069 37.3803 74.0069 37.2354C73.9448 37.087 73.8602 36.9576 73.7532 36.8471C73.6463 36.7333 73.5186 36.6435 73.3702 36.578C73.2253 36.5089 73.0665 36.4744 72.894 36.4744H71.2686V38.9695H72.9043ZM79.6855 42.5154C79.1609 42.5154 78.6674 42.4204 78.205 42.2306C77.746 42.0374 77.344 41.7751 76.9989 41.4438C76.6572 41.1091 76.3863 40.7191 76.1862 40.2739C75.9895 39.8253 75.8911 39.3456 75.8911 38.8349C75.8911 38.3242 75.9895 37.8462 76.1862 37.401C76.3863 36.9524 76.6572 36.5624 76.9989 36.2311C77.344 35.8998 77.746 35.6393 78.205 35.4495C78.6674 35.2562 79.1609 35.1596 79.6855 35.1596C80.21 35.1596 80.7018 35.2562 81.1607 35.4495C81.6232 35.6393 82.0269 35.8998 82.372 36.2311C82.7171 36.5624 82.988 36.9524 83.1847 37.401C83.3849 37.8462 83.485 38.3242 83.485 38.8349C83.485 39.3456 83.3849 39.8253 83.1847 40.2739C82.988 40.7191 82.7171 41.1091 82.372 41.4438C82.0269 41.7751 81.6232 42.0374 81.1607 42.2306C80.7018 42.4204 80.21 42.5154 79.6855 42.5154ZM79.6855 41.3299C80.034 41.3299 80.3601 41.2678 80.6638 41.1436C80.9709 41.0159 81.2384 40.8416 81.4662 40.6208C81.6939 40.3999 81.8734 40.1376 82.0045 39.834C82.1356 39.5268 82.2012 39.1955 82.2012 38.8401C82.2012 38.4812 82.1356 38.1499 82.0045 37.8462C81.8734 37.5391 81.6939 37.2751 81.4662 37.0542C81.2384 36.8299 80.9709 36.6556 80.6638 36.5314C80.3601 36.4037 80.034 36.3398 79.6855 36.3398C79.3404 36.3398 79.0142 36.4037 78.7071 36.5314C78.4034 36.6556 78.1377 36.8299 77.9099 37.0542C77.6856 37.2751 77.5079 37.5391 77.3768 37.8462C77.2456 38.1499 77.1801 38.4812 77.1801 38.8401C77.1801 39.1955 77.2456 39.5268 77.3768 39.834C77.5079 40.1376 77.6874 40.3999 77.9151 40.6208C78.1429 40.8416 78.4086 41.0159 78.7123 41.1436C79.016 41.2678 79.3404 41.3299 79.6855 41.3299ZM89.6087 42.3652V37.4424L85.773 42.3652H84.6704V35.3253H85.9541V40.2532L89.7899 35.3253H90.8977V42.3652H89.6087ZM94.0605 36.4744H91.964V35.3253H97.4407V36.4744H95.3442V42.3652H94.0605V36.4744ZM98.5019 35.3253H103.326V36.4796H99.7908V38.2448H102.845V39.3318H99.7908V41.2109H103.373V42.3652H98.5019V35.3253ZM103.911 41.3662H104.258C104.513 41.3662 104.696 41.2903 104.807 41.1384C104.917 40.9866 104.972 40.7502 104.972 40.4292V35.3304H110.615V42.3704H109.326V36.4796H106.261V40.5535C106.261 40.8986 106.21 41.1954 106.106 41.4438C106.003 41.6923 105.861 41.8976 105.682 42.0598C105.502 42.2186 105.293 42.3342 105.055 42.4066C104.821 42.4826 104.569 42.5205 104.299 42.5205H103.911V41.3662ZM112.292 35.3253H113.581V37.753H115.258C115.61 37.753 115.934 37.8117 116.231 37.929C116.528 38.0429 116.783 38.2034 116.997 38.4104C117.215 38.614 117.382 38.8556 117.499 39.1351C117.62 39.4147 117.681 39.7201 117.681 40.0514C117.681 40.3792 117.62 40.6846 117.499 40.9676C117.379 41.2506 117.21 41.4956 116.992 41.7026C116.778 41.9097 116.521 42.0719 116.221 42.1892C115.924 42.3066 115.598 42.3652 115.242 42.3652H112.292V35.3253ZM115.191 41.2161C115.37 41.2161 115.532 41.1867 115.677 41.1281C115.826 41.0694 115.952 40.9883 116.055 40.8848C116.162 40.7778 116.245 40.6536 116.304 40.5121C116.362 40.3706 116.392 40.217 116.392 40.0514C116.392 39.8857 116.362 39.7339 116.304 39.5958C116.248 39.4543 116.167 39.3318 116.06 39.2283C115.957 39.1248 115.831 39.0437 115.682 38.985C115.538 38.9263 115.375 38.897 115.196 38.897H113.581V41.2161H115.191ZM118.856 35.3253H120.145V38.2448H123.696V35.3253H124.99V42.3652H123.696V39.394H120.145V42.3652H118.856V35.3253ZM131.041 41.0038H127.801L127.242 42.3652H125.88L128.81 35.3201H130.032L132.961 42.3652H131.6L131.041 41.0038ZM130.601 39.9271L129.462 37.1525L129.431 36.9817H129.416L129.374 37.1525L128.241 39.9271H130.601ZM137.594 42.3652V39.8702H136.388C136.34 39.8702 136.293 39.8702 136.249 39.8702C136.207 39.8702 136.162 39.8685 136.114 39.865L134.721 42.3652H133.241L134.835 39.6683C134.618 39.5924 134.421 39.4906 134.245 39.3629C134.069 39.2318 133.919 39.0782 133.795 38.9022C133.671 38.7262 133.574 38.5312 133.505 38.3173C133.436 38.0998 133.401 37.8669 133.401 37.6184C133.401 37.2768 133.462 36.9645 133.583 36.6815C133.703 36.3985 133.873 36.1569 134.09 35.9568C134.307 35.7566 134.564 35.6013 134.861 35.4909C135.161 35.3805 135.489 35.3253 135.845 35.3253H138.883V42.3652H137.594ZM137.594 36.4744H135.897C135.727 36.4744 135.569 36.5038 135.42 36.5624C135.272 36.6211 135.144 36.7022 135.037 36.8057C134.93 36.9093 134.846 37.03 134.784 37.1681C134.721 37.3061 134.69 37.4562 134.69 37.6184C134.69 37.791 134.72 37.948 134.778 38.0895C134.841 38.231 134.925 38.3535 135.032 38.457C135.142 38.5605 135.27 38.6416 135.415 38.7003C135.564 38.7555 135.722 38.7831 135.891 38.7831H137.594V36.4744ZM144.443 35.3253V38.105H145.173L147.124 35.3253H148.677L146.203 38.721L148.75 42.3652H147.16L145.173 39.4923H144.443V42.3652H143.154V35.3253H144.443ZM152.58 42.5154C152.056 42.5154 151.562 42.4204 151.1 42.2306C150.641 42.0374 150.239 41.7751 149.894 41.4438C149.552 41.1091 149.281 40.7191 149.081 40.2739C148.884 39.8253 148.786 39.3456 148.786 38.8349C148.786 38.3242 148.884 37.8462 149.081 37.401C149.281 36.9524 149.552 36.5624 149.894 36.2311C150.239 35.8998 150.641 35.6393 151.1 35.4495C151.562 35.2562 152.056 35.1596 152.58 35.1596C153.105 35.1596 153.597 35.2562 154.056 35.4495C154.518 35.6393 154.922 35.8998 155.267 36.2311C155.612 36.5624 155.883 36.9524 156.08 37.401C156.28 37.8462 156.38 38.3242 156.38 38.8349C156.38 39.3456 156.28 39.8253 156.08 40.2739C155.883 40.7191 155.612 41.1091 155.267 41.4438C154.922 41.7751 154.518 42.0374 154.056 42.2306C153.597 42.4204 153.105 42.5154 152.58 42.5154ZM152.58 41.3299C152.929 41.3299 153.255 41.2678 153.559 41.1436C153.866 41.0159 154.133 40.8416 154.361 40.6208C154.589 40.3999 154.768 40.1376 154.899 39.834C155.03 39.5268 155.096 39.1955 155.096 38.8401C155.096 38.4812 155.03 38.1499 154.899 37.8462C154.768 37.5391 154.589 37.2751 154.361 37.0542C154.133 36.8299 153.866 36.6556 153.559 36.5314C153.255 36.4037 152.929 36.3398 152.58 36.3398C152.235 36.3398 151.909 36.4037 151.602 36.5314C151.298 36.6556 151.032 36.8299 150.805 37.0542C150.58 37.2751 150.403 37.5391 150.272 37.8462C150.14 38.1499 150.075 38.4812 150.075 38.8401C150.075 39.1955 150.14 39.5268 150.272 39.834C150.403 40.1376 150.582 40.3999 150.81 40.6208C151.038 40.8416 151.303 41.0159 151.607 41.1436C151.911 41.2678 152.235 41.3299 152.58 41.3299ZM157.565 35.3253H158.688L161.116 38.6071L163.559 35.3253H164.683V42.3652H163.394V37.3907L161.287 40.2688H160.94L158.854 37.3803V42.3652H157.565V35.3253ZM166.375 35.3253H172.515V42.3652H171.226V36.4744H167.67V42.3652H166.375V35.3253ZM178.509 41.0038H175.269L174.71 42.3652H173.348L176.278 35.3201H177.5L180.43 42.3652H179.068L178.509 41.0038ZM178.069 39.9271L176.93 37.1525L176.899 36.9817H176.884L176.842 37.1525L175.709 39.9271H178.069ZM181.325 35.3253H182.614V38.2448H186.165V35.3253H187.459V42.3652H186.165V39.394H182.614V42.3652H181.325V35.3253ZM194.08 42.3652V37.4424L190.244 42.3652H189.142V35.3253H190.425V40.2532L194.261 35.3253H195.369V42.3652H194.08ZM200.789 42.3652V39.8702H199.582C199.534 39.8702 199.487 39.8702 199.443 39.8702C199.401 39.8702 199.356 39.8685 199.308 39.865L197.916 42.3652H196.435L198.029 39.6683C197.812 39.5924 197.615 39.4906 197.439 39.3629C197.263 39.2318 197.113 39.0782 196.989 38.9022C196.865 38.7262 196.768 38.5312 196.699 38.3173C196.63 38.0998 196.596 37.8669 196.596 37.6184C196.596 37.2768 196.656 36.9645 196.777 36.6815C196.898 36.3985 197.067 36.1569 197.284 35.9568C197.501 35.7566 197.759 35.6013 198.055 35.4909C198.356 35.3805 198.683 35.3253 199.039 35.3253H202.077V42.3652H200.789ZM200.789 36.4744H199.091C198.922 36.4744 198.763 36.5038 198.614 36.5624C198.466 36.6211 198.338 36.7022 198.231 36.8057C198.124 36.9093 198.04 37.03 197.978 37.1681C197.916 37.3061 197.885 37.4562 197.885 37.6184C197.885 37.791 197.914 37.948 197.973 38.0895C198.035 38.231 198.119 38.3535 198.226 38.457C198.337 38.5605 198.464 38.6416 198.609 38.7003C198.758 38.7555 198.916 38.7831 199.085 38.7831H200.789V36.4744Z" fill="#273B46"/>
</g>
</svg>
